<?xml version="1.0" encoding="UTF-8" standalone="no"?>
<!DOCTYPE svg PUBLIC "-//W3C//DTD SVG 1.1//EN" "http://www.w3.org/Graphics/SVG/1.1/DTD/svg11.dtd">
<svg width="100%" height="100%" viewBox="0 0 1200 1200" version="1.1" xmlns="http://www.w3.org/2000/svg" xmlns:xlink="http://www.w3.org/1999/xlink" xml:space="preserve" xmlns:serif="http://www.serif.com/" style="fill-rule:evenodd;clip-rule:evenodd;stroke-miterlimit:10;">
    <g transform="matrix(1.61284,4.44279,-4.44279,1.61284,609.732,-200.478)">
        <g>
            <path d="M101.093,105.141L92.863,128L57.203,128L105.664,-0.013L142.239,-0.013L190.701,128L155.041,128L146.811,105.141L101.093,105.141ZM123.952,38.391L109.322,81.367L138.582,81.367L123.952,38.391Z" style="fill:rgb(46,197,240);fill-rule:nonzero;stroke:rgb(46,197,240);stroke-width:5.49px;"/>
        </g>
    </g>
    <g transform="matrix(-1.61737,4.44115,-4.44115,-1.61737,1007.89,312.574)">
        <g>
            <path d="M101.093,105.141L92.863,128L57.203,128L105.664,-0.013L142.239,-0.013L190.701,128L155.041,128L146.811,105.141L101.093,105.141ZM123.952,38.391L109.322,81.367L138.582,81.367L123.952,38.391Z" style="fill:rgb(46,197,240);fill-rule:nonzero;stroke:rgb(46,197,240);stroke-width:5.49px;"/>
        </g>
    </g>
    <g transform="matrix(-0.0356254,7.69256,-6.23627,-0.0288811,850.996,230.213)">
        <rect x="0" y="0" width="100" height="60" style="fill-rule:nonzero;"/>
    </g>
    <g transform="matrix(4.72648,0,0,4.72648,-252.78,-3.89903)">
        <g>
            <path d="M111.094,223L111.094,32.687L219.844,32.687C237.606,32.687 250.656,36.72 258.994,44.786C267.331,52.852 271.5,65.131 271.5,81.625C271.5,92.5 269.144,101.336 264.431,108.133C259.719,114.93 253.919,119.687 247.031,122.406C261.713,126.394 271.681,136.181 276.938,151.769C278.75,157.387 279.656,163.913 279.656,171.344C279.656,189.106 275.488,202.156 267.15,210.494C258.813,218.831 245.763,223 228,223L111.094,223ZM230.719,168.625L230.719,163.188C230.719,152.313 225.281,146.875 214.406,146.875L160.031,146.875L160.031,184.938L214.406,184.938C225.281,184.938 230.719,179.5 230.719,168.625ZM222.563,92.5L222.563,87.062C222.563,76.187 217.125,70.75 206.25,70.75L160.031,70.75L160.031,108.812L206.25,108.812C217.125,108.812 222.563,103.375 222.563,92.5Z" style="fill-rule:nonzero;stroke:black;stroke-width:1px;stroke-linecap:round;stroke-miterlimit:4;"/>
        </g>
    </g>
    <g transform="matrix(-0.011375,4.72647,-4.72647,-0.011375,818.604,21.5629)">
        <g>
            <path d="M194.181,7.073C195.156,8.902 195.735,10.548 195.918,12.011C196.101,13.474 196.193,15.607 196.193,18.411L196.193,119.907C196.193,128.319 193.876,133.257 189.243,134.72C186.927,135.451 184.001,135.817 180.465,135.817C176.93,135.817 174.126,135.512 172.053,134.903C169.98,134.293 168.396,133.562 167.298,132.708C166.201,131.855 165.348,130.636 164.738,129.051C164.128,126.978 163.824,123.808 163.824,119.541L163.824,58.278C160.776,62.058 156.326,68.062 150.474,76.291C144.622,84.521 140.903,89.672 139.318,91.744C137.733,93.817 136.636,95.249 136.027,96.042C135.417,96.834 133.924,97.932 131.546,99.334C129.169,100.736 126.609,101.437 123.865,101.437C121.122,101.437 118.623,100.797 116.368,99.516C114.112,98.236 112.497,96.987 111.521,95.768L110.058,93.756C107.62,90.708 102.804,84.216 95.611,74.28C88.418,64.343 84.517,59.01 83.907,58.278L83.907,119.907C83.907,122.711 83.816,124.814 83.633,126.216C83.45,127.618 82.871,129.173 81.896,130.88C80.067,134.171 75.312,135.817 67.631,135.817C60.194,135.817 55.562,134.171 53.733,130.88C52.758,129.173 52.178,127.588 51.996,126.125C51.813,124.662 51.721,122.467 51.721,119.541L51.721,18.046C51.721,15.242 51.813,13.138 51.996,11.736C52.178,10.334 52.758,8.719 53.733,6.89C55.562,3.72 60.316,2.135 67.997,2.135C71.289,2.135 74.123,2.532 76.501,3.324C78.878,4.117 80.433,4.94 81.164,5.793L82.261,6.89L123.774,61.387C144.5,33.956 158.337,15.851 165.287,7.073C167.359,3.781 172.266,2.135 180.008,2.135C187.75,2.135 192.474,3.781 194.181,7.073Z" style="fill:rgb(46,197,240);fill-rule:nonzero;stroke:rgb(46,197,240);stroke-width:5.49px;"/>
        </g>
    </g>
    <g transform="matrix(5.06654,0,0,4.72648,270.704,220.747)">
        <rect x="0" y="0" width="33.59" height="49.1" style="fill-rule:nonzero;"/>
    </g>
    <g transform="matrix(5.06654,0,0,4.72648,270.868,746.048)">
        <rect x="0" y="0" width="33.59" height="49.1" style="fill-rule:nonzero;"/>
    </g>
</svg>
